<svg width="154" height="36" viewBox="0 0 154 36" fill="none" xmlns="http://www.w3.org/2000/svg">
<path d="M26.8619 18.0693C26.8619 22.4857 23.2685 26.0833 18.8479 26.0833C14.4273 26.0833 10.8338 22.4898 10.8338 18.0693C10.8338 13.6487 14.4273 10.0552 18.8479 10.0552V0.130371C8.95971 0.130371 0.913086 8.177 0.913086 18.0652C0.913086 27.9534 8.95971 36 18.8479 36C28.7361 36 36.7827 27.9534 36.7827 18.0652H26.8619V18.0693Z" fill="white"/>
<path d="M35.4502 0.00407328C25.562 -0.179268 17.3687 7.72069 17.1895 17.6089L27.1102 17.7922C27.1917 13.4246 30.7689 9.92485 35.1202 9.92485C35.1691 9.92485 35.218 9.92485 35.271 9.92485C39.6874 10.0063 43.2157 13.665 43.1342 18.0815C43.0528 22.498 39.3941 26.0303 34.9776 25.9448L34.7943 35.8656C34.9042 35.8656 35.0183 35.8656 35.1283 35.8656C44.8658 35.8656 52.8757 28.0349 53.055 18.2608C53.2384 8.37257 45.3384 0.179265 35.4502 0L35.4502 0.00407328Z" fill="white"/>
<path d="M100.34 24.9703C100.588 24.3675 100.935 23.8473 101.38 23.4097C101.835 22.9721 102.367 22.6336 102.978 22.3941C103.597 22.1547 104.279 22.0349 105.022 22.0349C105.509 22.0349 106.017 22.1051 106.545 22.2455C107.074 22.3859 107.528 22.5758 107.908 22.8152L107.709 23.8184C107.164 23.5459 106.673 23.3519 106.236 23.2363C105.806 23.1125 105.36 23.0505 104.898 23.0505C104.163 23.0505 103.511 23.2157 102.941 23.5459C102.38 23.868 101.942 24.318 101.628 24.8959C101.314 25.4657 101.158 26.1303 101.158 26.89C101.158 27.6661 101.314 28.339 101.628 28.9088C101.942 29.4785 102.38 29.9202 102.941 30.234C103.511 30.5478 104.18 30.7046 104.947 30.7046C105.402 30.7046 105.88 30.6427 106.384 30.5189C106.888 30.395 107.379 30.2216 107.858 29.9987L107.982 30.9895C107.008 31.4766 105.975 31.7202 104.886 31.7202C104.167 31.7202 103.507 31.6046 102.904 31.3734C102.309 31.134 101.793 30.8037 101.356 30.3826C100.918 29.9533 100.58 29.4496 100.34 28.8716C100.101 28.2854 99.981 27.6455 99.981 26.9519C99.981 26.2335 100.101 25.573 100.34 24.9703Z" fill="white"/>
<path d="M96.2678 22.1712H97.3825V31.584H96.2678V22.1712Z" fill="white"/>
<path d="M85.199 22.1712H86.2765L92.0233 29.9615V22.1712H93.0512V31.584H91.9737L86.227 23.7936V31.584H85.199V22.1712Z" fill="white"/>
<path d="M80.8665 22.1712H81.9811V31.584H80.8665V22.1712Z" fill="white"/>
<path d="M72.7847 22.1712H73.8993V30.6303H78.519V31.584H72.7847V22.1712Z" fill="white"/>
<path d="M62.4226 24.9703C62.6704 24.3675 63.0171 23.8473 63.463 23.4097C63.9171 22.9721 64.4497 22.6336 65.0607 22.3941C65.68 22.1547 66.3612 22.0349 67.1043 22.0349C67.5914 22.0349 68.0992 22.1051 68.6277 22.2455C69.1561 22.3859 69.6102 22.5758 69.9901 22.8152L69.7919 23.8184C69.2469 23.5459 68.7557 23.3519 68.318 23.2363C67.8887 23.1125 67.4428 23.0505 66.9804 23.0505C66.2456 23.0505 65.5933 23.2157 65.0236 23.5459C64.4621 23.868 64.0245 24.318 63.7107 24.8959C63.397 25.4657 63.2401 26.1303 63.2401 26.89C63.2401 27.6661 63.397 28.339 63.7107 28.9088C64.0245 29.4785 64.4621 29.9202 65.0236 30.234C65.5933 30.5478 66.2621 30.7046 67.03 30.7046C67.4841 30.7046 67.963 30.6427 68.4667 30.5189C68.9703 30.395 69.4616 30.2216 69.9405 29.9987L70.0644 30.9895C69.0901 31.4766 68.0579 31.7202 66.968 31.7202C66.2497 31.7202 65.5892 31.6046 64.9864 31.3734C64.3919 31.134 63.8759 30.8037 63.4382 30.3826C63.0006 29.9533 62.6621 29.4496 62.4226 28.8716C62.1832 28.2854 62.0635 27.6455 62.0635 26.9519C62.0635 26.2335 62.1832 25.573 62.4226 24.9703Z" fill="white"/>
<path d="M148.135 4.47794H149.361L153.188 13.8907H151.987L150.872 11.0421H146.562L145.447 13.8907H144.308L148.135 4.47794ZM150.501 10.1132L148.717 5.55545L146.934 10.1132H150.501Z" fill="white"/>
<path d="M132.326 4.47794H133.441L137.057 11.2279L140.624 4.47794H141.739L142.197 13.8907H141.119L140.773 6.14995L137.528 12.293H136.537L133.28 6.24903L132.945 13.8907H131.868L132.326 4.47794Z" fill="white"/>
<path d="M124.714 4.47794H125.94L129.767 13.8907H128.566L127.451 11.0421H123.141L122.027 13.8907H120.887L124.714 4.47794ZM127.08 10.1132L125.296 5.55545L123.513 10.1132H127.08Z" fill="white"/>
<path d="M117.52 9.84076V13.8907H116.405V9.82837L112.863 4.47794H114.114L116.999 8.97379L119.898 4.47794H121.074L117.52 9.84076Z" fill="white"/>
<path d="M102.894 4.47794H104.009V9.92745C104.009 10.9596 104.248 11.744 104.727 12.2807C105.214 12.8091 105.925 13.0733 106.858 13.0733C107.791 13.0733 108.497 12.8091 108.975 12.2807C109.463 11.744 109.706 10.9596 109.706 9.92745V4.47794H110.821V10.0265C110.821 11.3063 110.466 12.3054 109.756 13.0238C109.054 13.7339 108.075 14.0889 106.82 14.0889C105.582 14.0889 104.616 13.7339 103.922 13.0238C103.237 12.3054 102.894 11.3063 102.894 10.0265V4.47794Z" fill="white"/>
<path d="M99.5752 12.8132C99.3027 13.2178 98.9188 13.5316 98.4234 13.7545C97.9279 13.9774 97.3376 14.0889 96.6523 14.0889C96.2972 14.0889 95.9339 14.0559 95.5624 13.9898C95.1908 13.9238 94.8358 13.8371 94.4972 13.7297C94.167 13.6141 93.8862 13.482 93.655 13.3334L93.7913 12.3054C94.1876 12.5449 94.6417 12.7389 95.1536 12.8875C95.6656 13.0361 96.1486 13.1105 96.6027 13.1105C97.2963 13.1105 97.8454 12.9618 98.25 12.6646C98.6546 12.3673 98.8568 11.9628 98.8568 11.4508C98.8568 11.1536 98.7908 10.9017 98.6587 10.6953C98.5348 10.4889 98.3119 10.299 97.9899 10.1256C97.6679 9.95221 97.2179 9.77056 96.6399 9.58065C95.938 9.34946 95.3807 9.11001 94.9679 8.8623C94.555 8.6146 94.2619 8.32974 94.0885 8.00772C93.9151 7.6857 93.8284 7.29763 93.8284 6.84351C93.8284 6.32332 93.9564 5.87333 94.2124 5.49351C94.4766 5.10544 94.8399 4.80819 95.3023 4.60177C95.7647 4.38709 96.3055 4.27975 96.9247 4.27975C97.3789 4.27975 97.8413 4.34168 98.3119 4.46553C98.7825 4.58113 99.2036 4.74627 99.5752 4.96094L99.3894 5.93938C99.0261 5.7247 98.6257 5.55957 98.188 5.44397C97.7504 5.32012 97.3293 5.25819 96.9247 5.25819C96.2972 5.25819 95.8059 5.39443 95.4509 5.6669C95.0958 5.93112 94.9183 6.29855 94.9183 6.76919C94.9183 7.04993 94.9761 7.28938 95.0917 7.48754C95.2073 7.67745 95.4096 7.85497 95.6986 8.02011C95.9958 8.17699 96.4046 8.34625 96.9247 8.5279C97.6844 8.78386 98.2871 9.04395 98.733 9.30817C99.1789 9.57239 99.4967 9.86964 99.6867 10.1999C99.8848 10.5302 99.9839 10.9183 99.9839 11.3641C99.9839 11.9173 99.8477 12.4004 99.5752 12.8132Z" fill="white"/>
<path d="M87.2836 5.4316H84.0635V4.47794H91.6185V5.4316H88.3983V13.8907H87.2836V5.4316Z" fill="white"/>
<path d="M78.8261 4.47794H80.0522L83.8793 13.8907H82.6779L81.5632 11.0421H77.2531L76.1385 13.8907H74.999L78.8261 4.47794ZM81.1917 10.1132L79.4082 5.55545L77.6247 10.1132H81.1917Z" fill="white"/>
<path d="M63.0171 4.47794H64.1318L67.7483 11.2279L71.3152 4.47794H72.4299L72.8882 13.8907H71.8106L71.4638 6.14995L68.2189 12.293H67.2281L63.9708 6.24903L63.6364 13.8907H62.5588L63.0171 4.47794Z" fill="white"/>
</svg>
